<svg width="256" height="60" viewBox="0 0 256 60" fill="none" xmlns="http://www.w3.org/2000/svg">
<rect width="255.354" height="60" rx="20" fill="#5500FF"/>
<path d="M70.89 42.3C67.71 42.3 65.31 41.44 63.69 39.72C62.09 38 61.29 35.67 61.29 32.73C61.29 30.61 61.64 28.78 62.34 27.24C63.04 25.68 64.1 24.48 65.52 23.64C66.96 22.8 68.78 22.38 70.98 22.38C72.12 22.38 73.15 22.46 74.07 22.62C75.01 22.76 75.89 22.97 76.71 23.25V26.07C75.07 25.47 73.25 25.17 71.25 25.17C68.79 25.17 67.06 25.82 66.06 27.12C65.08 28.42 64.59 30.29 64.59 32.73C64.59 34.95 65.11 36.64 66.15 37.8C67.19 38.96 68.8 39.54 70.98 39.54C72.7 39.54 74.09 39.34 75.15 38.94V33.54H70.32V31.41H77.94V40.71C77.32 41.11 76.43 41.48 75.27 41.82C74.13 42.14 72.67 42.3 70.89 42.3ZM90.1088 42.3C86.9288 42.3 84.5288 41.44 82.9088 39.72C81.3088 38 80.5088 35.67 80.5088 32.73C80.5088 30.61 80.8588 28.78 81.5588 27.24C82.2588 25.68 83.3188 24.48 84.7388 23.64C86.1788 22.8 87.9988 22.38 90.1988 22.38C91.3388 22.38 92.3688 22.46 93.2888 22.62C94.2288 22.76 95.1088 22.97 95.9288 23.25V26.07C94.2888 25.47 92.4688 25.17 90.4688 25.17C88.0088 25.17 86.2788 25.82 85.2788 27.12C84.2988 28.42 83.8088 30.29 83.8088 32.73C83.8088 34.95 84.3288 36.64 85.3688 37.8C86.4088 38.96 88.0188 39.54 90.1988 39.54C91.9188 39.54 93.3088 39.34 94.3687 38.94V33.54H89.5388V31.41H97.1588V40.71C96.5388 41.11 95.6488 41.48 94.4888 41.82C93.3488 42.14 91.8888 42.3 90.1088 42.3ZM106.672 42L114.052 22.68H117.712L125.032 42H121.672L119.752 37.02H111.982L110.062 42H106.672ZM112.492 34.5H119.212L115.852 25.65L112.492 34.5ZM128.247 42V22.68H136.077C138.937 22.68 141.057 23.44 142.437 24.96C143.817 26.46 144.507 28.96 144.507 32.46C144.507 35.76 143.827 38.18 142.467 39.72C141.107 41.24 138.977 42 136.077 42H128.247ZM131.517 39.48H135.567C136.827 39.48 137.877 39.3 138.717 38.94C139.557 38.56 140.187 37.86 140.607 36.84C141.027 35.82 141.237 34.36 141.237 32.46C141.237 30.56 141.047 29.09 140.667 28.05C140.287 27.01 139.677 26.28 138.837 25.86C138.017 25.44 136.927 25.23 135.567 25.23H131.517V39.48ZM147.73 42V22.68H151.09L157.21 35.19L163.3 22.68H166.66V42H163.42V27.99L158.2 38.67H156.22L150.97 27.99V42H147.73ZM170.435 42V22.68H173.705V42H170.435ZM177.495 42V22.68H180.375L190.455 36.9V22.68H193.695V42H190.815L180.765 27.81V42H177.495Z" fill="white"/>
</svg>
