<svg width="60" height="60" viewBox="0 0 60 60" fill="none" xmlns="http://www.w3.org/2000/svg">
<rect width="60" height="60" rx="20" fill="#5500FF"/>
<path d="M21.89 41.3C18.71 41.3 16.31 40.44 14.69 38.72C13.09 37 12.29 34.67 12.29 31.73C12.29 29.61 12.64 27.78 13.34 26.24C14.04 24.68 15.1 23.48 16.52 22.64C17.96 21.8 19.78 21.38 21.98 21.38C23.12 21.38 24.15 21.46 25.07 21.62C26.01 21.76 26.89 21.97 27.71 22.25V25.07C26.07 24.47 24.25 24.17 22.25 24.17C19.79 24.17 18.06 24.82 17.06 26.12C16.08 27.42 15.59 29.29 15.59 31.73C15.59 33.95 16.11 35.64 17.15 36.8C18.19 37.96 19.8 38.54 21.98 38.54C23.7 38.54 25.09 38.34 26.15 37.94V32.54H21.32V30.41H28.94V39.71C28.32 40.11 27.43 40.48 26.27 40.82C25.13 41.14 23.67 41.3 21.89 41.3ZM41.1088 41.3C37.9288 41.3 35.5288 40.44 33.9088 38.72C32.3088 37 31.5088 34.67 31.5088 31.73C31.5088 29.61 31.8588 27.78 32.5588 26.24C33.2588 24.68 34.3188 23.48 35.7388 22.64C37.1788 21.8 38.9988 21.38 41.1988 21.38C42.3388 21.38 43.3688 21.46 44.2888 21.62C45.2288 21.76 46.1088 21.97 46.9288 22.25V25.07C45.2888 24.47 43.4688 24.17 41.4688 24.17C39.0088 24.17 37.2788 24.82 36.2788 26.12C35.2988 27.42 34.8088 29.29 34.8088 31.73C34.8088 33.95 35.3288 35.64 36.3688 36.8C37.4088 37.96 39.0188 38.54 41.1988 38.54C42.9188 38.54 44.3088 38.34 45.3687 37.94V32.54H40.5388V30.41H48.1588V39.71C47.5388 40.11 46.6488 40.48 45.4888 40.82C44.3488 41.14 42.8888 41.3 41.1088 41.3Z" fill="white"/>
</svg>
